<?xml version="1.0" standalone="no"?>
<!DOCTYPE svg PUBLIC "-//W3C//DTD SVG 20010904//EN"
 "http://www.w3.org/TR/2001/REC-SVG-20010904/DTD/svg10.dtd">
<svg version="1.0" xmlns="http://www.w3.org/2000/svg"
 width="960.000000pt" height="1280.000000pt" viewBox="0 0 960.000000 1280.000000"
 preserveAspectRatio="xMidYMid meet">
<metadata>
Created by potrace 1.15, written by Peter Selinger 2001-2017
</metadata>
<g transform="translate(0.000000,1280.000000) scale(0.100000,-0.100000)"
fill="#000000" stroke="none">
<path d="M4335 12259 c-199 -9 -383 -44 -615 -116 -154 -48 -322 -109 -368
-133 -20 -11 -41 -20 -47 -20 -5 0 -59 -28 -120 -61 -60 -34 -137 -76 -170
-93 -130 -71 -355 -213 -460 -292 -81 -60 -168 -142 -330 -312 -335 -349 -367
-389 -461 -567 -14 -27 -47 -81 -72 -119 -25 -37 -71 -129 -104 -203 -32 -74
-69 -153 -82 -176 -33 -58 -56 -118 -111 -292 -26 -82 -51 -159 -56 -170 -39
-89 -64 -201 -84 -375 -8 -69 -19 -156 -24 -195 -26 -193 -11 -707 25 -860 9
-38 18 -88 20 -110 17 -151 27 -217 43 -270 10 -33 31 -107 46 -165 16 -58 41
-133 57 -167 15 -33 50 -119 77 -190 70 -182 96 -242 125 -293 13 -25 46 -97
71 -160 25 -63 58 -133 72 -155 33 -49 83 -146 83 -160 0 -23 69 -174 97 -216
17 -24 40 -66 53 -94 48 -108 66 -143 116 -220 29 -44 66 -110 83 -146 17 -36
40 -74 51 -84 11 -10 20 -24 20 -32 0 -7 4 -13 9 -13 5 0 13 -10 17 -22 3 -13
58 -128 120 -256 63 -129 114 -236 114 -239 0 -3 7 -19 14 -36 26 -56 63 -165
112 -329 8 -26 14 -54 14 -62 0 -9 4 -16 8 -16 4 0 8 -8 9 -17 4 -35 34 -209
42 -243 10 -39 24 -210 22 -280 -1 -57 25 -229 45 -299 8 -30 31 -87 50 -128
19 -41 34 -76 34 -79 0 -15 83 -179 111 -220 46 -67 70 -126 120 -299 16 -55
33 -114 39 -132 25 -73 30 -148 18 -249 -13 -114 -10 -132 31 -194 27 -41 30
-55 36 -168 l7 -123 -41 -38 c-35 -32 -41 -44 -41 -78 0 -34 6 -46 35 -72 20
-17 39 -31 43 -31 4 0 6 -47 4 -105 -3 -103 -4 -105 -31 -119 -15 -8 -42 -28
-59 -44 -27 -25 -32 -38 -32 -74 0 -46 -4 -42 92 -88 25 -12 26 -16 30 -114 4
-105 -1 -126 -34 -126 -11 0 -33 -13 -49 -29 -54 -55 -32 -161 35 -161 38 0
49 -25 61 -144 7 -78 17 -123 30 -142 10 -16 77 -85 149 -154 205 -197 264
-250 279 -250 18 0 237 -211 298 -286 27 -34 49 -69 49 -78 0 -9 12 -29 27
-46 23 -26 40 -33 98 -42 125 -20 941 -14 996 7 9 3 23 22 33 42 29 60 65 101
170 188 56 46 153 136 216 200 63 65 153 149 200 188 47 39 147 133 224 209
l139 138 -5 45 c-5 36 -13 51 -43 78 -32 29 -38 41 -43 87 -3 36 -1 51 6 46 6
-3 13 3 17 14 4 11 31 39 61 61 48 35 54 44 54 75 0 27 -10 47 -41 85 l-42 49
2 87 c2 80 5 91 30 123 63 79 68 131 20 203 -30 45 -30 48 -24 129 6 69 12 87
32 110 39 41 42 105 9 164 -25 45 -26 51 -20 151 4 56 10 103 13 103 4 0 15
14 25 31 16 26 17 44 12 122 -5 65 -3 111 7 157 19 86 56 221 65 234 7 12 8
16 18 61 4 17 10 32 13 35 4 3 20 32 36 65 16 33 43 79 60 101 50 67 153 282
180 379 14 49 30 130 35 180 5 49 14 105 20 124 5 19 14 93 20 165 12 142 12
141 35 236 51 203 115 414 141 460 7 14 29 63 48 110 37 93 106 242 222 475
41 83 74 155 74 161 0 18 47 109 94 182 25 38 71 118 102 178 32 60 108 198
171 307 62 108 147 268 189 355 148 305 192 398 224 462 17 36 47 111 65 166
19 56 56 155 83 220 99 236 110 326 115 914 6 659 -2 731 -138 1160 -18 58
-38 124 -44 147 -7 23 -29 81 -51 127 -22 47 -40 88 -40 92 0 5 -30 75 -82
194 -11 25 -30 59 -43 75 -12 17 -47 73 -77 125 -75 130 -208 323 -260 379
-24 25 -63 71 -88 101 -94 117 -189 216 -290 305 -58 51 -125 111 -150 135
-189 178 -684 463 -932 536 -29 9 -70 25 -90 35 -21 11 -63 25 -95 33 -32 8
-83 21 -113 29 -119 31 -290 66 -400 83 -63 9 -124 21 -135 27 -11 6 -56 15
-100 20 -96 12 -584 16 -780 6z"/>
</g>
</svg>
