<?xml version="1.0" standalone="no"?>
<!DOCTYPE svg PUBLIC "-//W3C//DTD SVG 20010904//EN"
 "http://www.w3.org/TR/2001/REC-SVG-20010904/DTD/svg10.dtd">
<svg version="1.0" xmlns="http://www.w3.org/2000/svg"
 width="837.000000pt" height="1280.000000pt" viewBox="0 0 837.000000 1280.000000"
 preserveAspectRatio="xMidYMid meet">
<metadata>
Created by potrace 1.15, written by Peter Selinger 2001-2017
</metadata>
<g transform="translate(0.000000,1280.000000) scale(0.100000,-0.100000)"
fill="#000000" stroke="none">
<path d="M3910 12123 c-274 -19 -683 -122 -1000 -250 -121 -50 -294 -133 -287
-139 3 -3 33 9 67 26 34 17 64 30 66 28 2 -2 -31 -21 -72 -41 -42 -21 -73 -33
-69 -27 10 16 -11 12 -52 -11 -266 -148 -512 -328 -740 -541 -78 -73 -64 -70
18 3 189 170 423 350 539 414 38 20 -12 -17 -100 -76 -240 -159 -566 -449
-775 -689 -125 -143 -139 -159 -121 -131 8 13 56 70 106 127 50 57 89 104 86
104 -8 0 -86 -85 -146 -160 -29 -36 -60 -74 -69 -84 -9 -11 -10 -16 -3 -12 14
8 17 -10 2 -19 -5 -3 -48 -61 -96 -128 -47 -67 -90 -121 -94 -120 -4 1 -7 -5
-6 -15 0 -9 -5 -16 -12 -14 -8 1 -11 -2 -7 -8 9 -14 -14 -52 -27 -44 -7 4 -8
3 -4 -4 10 -16 -12 -54 -26 -46 -7 4 -8 3 -4 -4 9 -15 -31 -93 -45 -89 -7 1
-14 -5 -16 -13 -4 -13 -3 -13 7 0 10 13 11 12 6 -3 -3 -10 -6 -21 -6 -23 0 -3
-5 -2 -12 2 -6 4 -8 3 -5 -4 9 -13 -2 -44 -13 -37 -5 3 -12 0 -16 -6 -4 -8 -3
-9 4 -5 17 10 16 7 -24 -80 -194 -426 -304 -1140 -274 -1774 18 -372 57 -575
176 -920 158 -462 396 -918 701 -1347 25 -35 42 -67 38 -73 -4 -6 -1 -9 6 -8
6 2 14 -3 17 -11 3 -9 0 -11 -9 -6 -8 5 -11 4 -6 -1 5 -5 14 -9 20 -9 7 0 11
-8 11 -17 -1 -10 3 -16 10 -15 6 1 10 -6 10 -15 -1 -10 3 -16 10 -15 6 1 10
-6 10 -15 -1 -10 3 -16 10 -15 6 1 10 -6 10 -15 -1 -10 3 -16 10 -15 6 1 11
-8 11 -20 0 -11 4 -25 8 -29 4 -5 5 0 2 11 -7 20 -6 20 9 1 19 -24 21 -40 4
-30 -8 4 -10 3 -5 -2 5 -5 14 -9 19 -9 6 0 13 -6 16 -14 3 -9 0 -11 -8 -6 -9
5 -11 4 -6 -4 4 -6 11 -9 16 -6 12 8 33 -33 24 -47 -4 -7 -3 -8 4 -4 14 8 36
-30 26 -46 -4 -7 -3 -8 4 -4 13 8 94 -133 87 -152 -3 -7 0 -10 5 -7 11 7 82
-132 133 -260 75 -189 98 -298 126 -610 6 -66 18 -187 26 -270 22 -217 45
-555 45 -649 0 -156 63 -333 170 -478 80 -108 169 -159 315 -180 39 -5 71 -11
72 -12 1 -1 3 -21 4 -45 2 -24 9 -45 16 -48 9 -4 13 -28 13 -79 0 -72 1 -74
28 -80 76 -18 122 -76 122 -154 0 -79 -71 -149 -152 -150 -29 0 -91 -64 -86
-89 4 -19 57 -49 88 -50 44 -2 106 -37 128 -73 29 -47 29 -119 0 -166 -23 -37
-85 -71 -130 -72 -18 0 -36 -11 -57 -37 -35 -42 -40 -71 -13 -79 9 -3 25 -10
34 -15 10 -5 28 -9 40 -9 42 -1 104 -37 126 -72 29 -47 29 -119 0 -166 -23
-37 -85 -71 -130 -72 -18 0 -36 -11 -57 -37 -17 -21 -31 -43 -31 -49 0 -16 66
-54 93 -54 41 -1 103 -37 125 -72 42 -68 21 -170 -42 -212 -14 -8 -44 -18 -68
-22 -46 -7 -108 -55 -108 -83 1 -15 61 -61 80 -61 5 0 10 -15 12 -32 3 -30 10
-37 88 -77 72 -38 81 -46 62 -50 -18 -5 49 -42 298 -166 186 -92 329 -169 340
-182 10 -13 22 -37 25 -53 13 -59 43 -70 187 -70 95 0 127 -3 122 -11 -4 -7
-6 -46 -5 -87 2 -47 -2 -78 -9 -82 -17 -11 99 -40 187 -47 46 -3 109 -1 153 7
74 13 158 38 130 39 -12 1 -15 18 -15 91 l0 90 113 0 c111 0 114 1 140 28 15
15 34 42 43 59 17 32 132 95 541 299 148 74 188 99 136 87 -35 -9 -13 8 60 47
l67 35 5 108 c5 102 6 108 30 120 63 31 47 115 -25 130 -101 21 -155 75 -155
156 0 82 49 136 138 152 110 21 110 127 0 148 -88 16 -138 70 -138 151 0 81
50 135 138 151 110 21 110 127 0 148 -89 16 -138 70 -138 152 0 81 54 135 155
156 73 15 88 100 22 131 -18 9 -26 19 -23 30 2 9 12 101 22 204 l17 187 51 6
c114 15 206 52 264 108 89 84 187 264 215 392 9 39 21 171 27 295 10 205 35
499 75 910 18 179 49 315 104 457 66 170 234 488 251 478 5 -3 12 0 16 6 4 8
3 9 -4 5 -15 -9 -15 -1 -1 25 5 11 14 17 18 14 5 -2 8 3 7 13 0 9 5 16 12 14
8 -1 11 2 7 8 -8 13 13 52 25 45 5 -3 12 0 16 6 5 8 3 9 -6 4 -8 -5 -11 -3 -8
6 3 8 10 14 16 14 5 0 14 4 19 9 5 5 2 6 -6 1 -9 -5 -12 -3 -9 6 3 8 10 14 16
14 5 0 14 4 19 9 5 5 3 6 -4 2 -7 -4 -13 -4 -13 -1 0 3 78 122 174 263 208
309 287 442 409 690 241 488 380 924 417 1310 43 451 9 996 -92 1457 -117 536
-388 1016 -833 1474 -352 362 -684 612 -1057 797 -53 26 -94 52 -91 57 3 6 1
7 -6 3 -6 -4 -55 11 -109 34 -136 59 -358 131 -552 179 -322 79 -479 96 -838
88 -139 -2 -251 -2 -248 1 4 3 131 8 284 12 l277 7 -225 0 c-124 0 -245 -2
-270 -4z m-92 -30 c-10 -2 -26 -2 -35 0 -10 3 -2 5 17 5 19 0 27 -2 18 -5z
m-70 -10 c-10 -2 -26 -2 -35 0 -10 3 -2 5 17 5 19 0 27 -2 18 -5z m-65 -10
c-7 -2 -19 -2 -25 0 -7 3 -2 5 12 5 14 0 19 -2 13 -5z m-50 -10 c-7 -2 -19 -2
-25 0 -7 3 -2 5 12 5 14 0 19 -2 13 -5z m-63 -13 c-14 -4 -34 -8 -45 -8 -16 0
-15 2 5 8 14 4 34 8 45 8 16 0 15 -2 -5 -8z m-73 -16 c-3 -3 -12 -4 -19 -1 -8
3 -5 6 6 6 11 1 17 -2 13 -5z m-77 -20 c-25 -7 -52 -13 -60 -13 -21 1 60 27
85 27 11 0 0 -6 -25 -14z m-135 -35 c-33 -10 -64 -18 -70 -18 -15 1 97 38 115
37 8 0 -12 -8 -45 -19z m-179 -55 c-38 -13 -71 -22 -73 -20 -5 5 107 44 127
44 8 0 -16 -10 -54 -24z m-87 -28 c-2 -2 -42 -20 -89 -39 -47 -19 -102 -42
-122 -51 -21 -9 -38 -14 -38 -11 0 3 10 10 23 15 12 5 65 27 117 49 86 36 121
48 109 37z m-439 -200 c0 -2 -29 -20 -65 -40 -36 -20 -78 -44 -93 -53 -15 -9
-22 -12 -17 -5 9 10 164 102 172 102 2 0 3 -2 3 -4z"/>
<path d="M4451 12116 c2 -2 40 -6 84 -9 60 -4 69 -3 35 3 -46 9 -127 13 -119
6z"/>
<path d="M4621 12096 c2 -2 27 -6 54 -9 34 -4 42 -3 25 3 -25 8 -87 13 -79 6z"/>
<path d="M4760 12070 c14 -4 34 -8 45 -8 16 0 15 2 -5 8 -14 4 -34 8 -45 8
-16 0 -15 -2 5 -8z"/>
<path d="M4855 12050 c11 -5 27 -9 35 -9 9 0 8 4 -5 9 -11 5 -27 9 -35 9 -9 0
-8 -4 5 -9z"/>
<path d="M4935 12030 c11 -5 27 -9 35 -9 9 0 8 4 -5 9 -11 5 -27 9 -35 9 -9 0
-8 -4 5 -9z"/>
<path d="M1665 11020 c-49 -49 -87 -91 -84 -94 3 -3 47 37 99 89 52 52 90 95
85 95 -6 0 -50 -41 -100 -90z"/>
<path d="M1313 10613 c-42 -55 -75 -103 -70 -103 3 0 28 32 56 70 53 74 63 97
14 33z"/>
<path d="M1207 10468 c-27 -37 -45 -69 -30 -53 18 19 64 85 59 85 -3 0 -16
-15 -29 -32z"/>
<path d="M671 8624 c0 -11 3 -14 6 -6 3 7 2 16 -1 19 -3 4 -6 -2 -5 -13z"/>
<path d="M671 8244 c0 -11 3 -14 6 -6 3 7 2 16 -1 19 -3 4 -6 -2 -5 -13z"/>
<path d="M6520 5500 c-6 -11 -8 -20 -6 -20 3 0 10 9 16 20 6 11 8 20 6 20 -3
0 -10 -9 -16 -20z"/>
<path d="M1860 5471 c0 -6 4 -13 10 -16 6 -3 7 1 4 9 -7 18 -14 21 -14 7z"/>
<path d="M6480 5430 c-6 -11 -8 -20 -6 -20 3 0 10 9 16 20 6 11 8 20 6 20 -3
0 -10 -9 -16 -20z"/>
<path d="M1900 5401 c0 -6 4 -13 10 -16 6 -3 7 1 4 9 -7 18 -14 21 -14 7z"/>
<path d="M6416 5313 c-6 -14 -5 -15 5 -6 7 7 10 15 7 18 -3 3 -9 -2 -12 -12z"/>
<path d="M6396 5273 c-6 -14 -5 -15 5 -6 7 7 10 15 7 18 -3 3 -9 -2 -12 -12z"/>
<path d="M1981 5250 c14 -31 19 -36 19 -24 0 6 -7 19 -16 30 -14 18 -14 18 -3
-6z"/>
<path d="M6356 5195 c-9 -26 -7 -32 5 -12 6 10 9 21 6 23 -2 3 -7 -2 -11 -11z"/>
<path d="M2011 5185 c0 -5 6 -21 14 -35 8 -14 14 -20 14 -15 0 6 -6 21 -14 35
-8 14 -14 21 -14 15z"/>
<path d="M6336 5143 c-6 -14 -5 -15 5 -6 7 7 10 15 7 18 -3 3 -9 -2 -12 -12z"/>
<path d="M2045 5103 c28 -72 71 -212 86 -283 9 -47 18 -74 18 -60 2 54 -89
360 -106 360 -3 0 -2 -8 2 -17z"/>
<path d="M6296 5044 c-9 -26 -14 -49 -12 -51 2 -2 11 17 20 43 9 26 14 49 12
51 -2 2 -11 -17 -20 -43z"/>
<path d="M6261 4939 c-7 -22 -11 -43 -8 -45 2 -2 9 14 16 37 7 22 11 43 8 45
-2 2 -9 -14 -16 -37z"/>
<path d="M6235 4840 c-4 -17 -5 -34 -2 -36 2 -3 7 10 11 27 8 42 0 50 -9 9z"/>
<path d="M6222 4740 c0 -19 2 -27 5 -17 2 9 2 25 0 35 -3 9 -5 1 -5 -18z"/>
<path d="M2153 4695 c0 -22 2 -30 4 -17 2 12 2 30 0 40 -3 9 -5 -1 -4 -23z"/>
<path d="M6212 4675 c0 -16 2 -22 5 -12 2 9 2 23 0 30 -3 6 -5 -1 -5 -18z"/>
<path d="M2162 4580 c0 -14 2 -19 5 -12 2 6 2 18 0 25 -3 6 -5 1 -5 -13z"/>
<path d="M2171 4504 c0 -11 3 -14 6 -6 3 7 2 16 -1 19 -3 4 -6 -2 -5 -13z"/>
<path d="M2222 3925 c0 -16 2 -22 5 -12 2 9 2 23 0 30 -3 6 -5 -1 -5 -18z"/>
<path d="M2231 3824 c0 -11 3 -14 6 -6 3 7 2 16 -1 19 -3 4 -6 -2 -5 -13z"/>
</g>
</svg>
